<svg width="163" height="201" viewBox="0 0 163 201" fill="none" xmlns="http://www.w3.org/2000/svg">
<path d="M75.8802 114.883C75.8683 113.311 76.7148 112.286 78.2856 112.05C79.3722 111.888 80.4902 111.908 81.6319 111.849C82.6398 111.912 83.687 111.908 84.7106 112.054C86.3286 112.286 87.1042 113.421 87.0767 114.926C87.053 116.341 86.2893 117.527 84.7618 117.63C82.628 117.775 80.4706 117.791 78.3368 117.653C76.766 117.551 75.892 116.455 75.8802 114.883V114.883ZM162.964 188.191C162.925 191.674 161.551 193.03 158.027 193.037C146.76 193.053 135.496 193.045 124.229 193.045C123.461 193.045 122.69 193.045 121.666 193.045C121.666 194.476 121.733 195.705 121.654 196.923C121.477 199.634 120.107 200.985 117.375 200.985C93.4662 201.005 69.5615 201.005 45.6528 200.985C42.7513 200.985 41.3615 199.519 41.2907 196.596C41.2631 195.496 41.2867 194.393 41.2867 193.041H38.8459C27.9722 193.041 17.0985 193.041 6.22485 193.041C0.83525 193.041 0.00850367 192.202 0.00850367 186.729C0.00850367 184.108 -0.0151176 181.484 0.0163774 178.864C0.0518094 175.853 1.44153 174.435 4.47293 174.348C6.42563 174.293 8.37832 174.336 10.583 174.336V171.869C10.583 151.289 10.583 130.704 10.583 110.123C10.583 106.415 11.3546 105.635 15.071 105.631C23.6534 105.623 32.2319 105.631 40.8143 105.631C41.5859 105.631 42.3576 105.631 43.3457 105.631C43.3457 103.196 43.3221 100.981 43.3575 98.7706C43.3694 97.9944 43.2591 96.9699 43.6882 96.497C44.4441 95.6656 45.5346 94.7317 46.5504 94.645C48.0267 94.5189 49.129 95.6144 49.1723 97.2418C49.2432 99.9212 49.192 102.605 49.192 105.422C49.8495 105.505 50.3495 105.611 50.8455 105.623C52.0896 105.651 53.3336 105.643 54.5777 105.631C58.176 105.599 62.0263 106.34 65.3017 105.296C68.5772 104.252 71.2858 101.415 74.2385 99.3538C75.5298 98.4554 76.8053 97.5412 78.0927 96.6389C81.0178 94.582 81.9233 94.5702 84.7854 96.5837C88.5884 99.2593 92.3521 101.99 96.2063 104.591C97.0645 105.17 98.218 105.564 99.2456 105.588C103.95 105.69 108.659 105.635 113.509 105.635V77.583H49.2393C49.2393 79.9591 49.255 82.2997 49.2393 84.6363C49.2196 87.2094 48.259 88.498 46.3811 88.5255C44.4205 88.5531 43.3772 87.2094 43.3536 84.5536C43.33 82.2721 43.3497 79.9906 43.3497 77.4766C41.3694 77.4766 39.5545 77.5081 37.7435 77.4687C34.8066 77.4096 33.4287 76.0305 33.3736 73.1067C33.3421 71.4675 33.3224 69.8282 33.3933 68.193C33.4917 65.8839 34.7397 64.5638 37.0546 64.4023C38.8144 64.2801 40.5978 64.4456 42.3497 64.2762C42.9127 64.221 43.8064 63.5669 43.8851 63.0783C46.5543 46.761 60.7586 33.2808 77.9588 31.7835C78.0769 31.7716 78.1911 31.681 78.5651 31.5037V29.5256C78.5651 20.9394 78.5139 12.3532 78.6202 3.76704C78.636 2.50611 79.3879 1.25305 79.8013 0H113.603C115.91 1.38309 116.836 3.41635 116.753 6.09583C116.647 9.50036 116.745 12.9128 116.721 16.3212C116.698 20.2892 114.607 22.4013 110.659 22.4092C102.734 22.4289 94.8087 22.4171 86.8837 22.4171C86.1712 22.4171 85.4586 22.4171 84.6043 22.4171V31.6219C86.1909 31.9095 87.864 32.1184 89.49 32.5243C105.257 36.4568 115.088 46.3354 118.796 62.172C119.213 63.9531 119.859 64.5638 121.619 64.3708C122.977 64.221 124.371 64.2919 125.741 64.3826C128.095 64.5362 129.41 65.7184 129.595 68.0275C129.745 69.9149 129.749 71.8339 129.603 73.7214C129.414 76.1526 127.945 77.386 125.402 77.4727C123.572 77.5357 121.741 77.5396 119.91 77.5751C119.863 77.5751 119.812 77.65 119.658 77.78V105.639H121.973C130.619 105.639 139.264 105.635 147.913 105.639C151.571 105.639 152.433 106.51 152.437 110.151C152.441 113.559 152.441 116.968 152.437 120.376C152.437 120.963 152.441 121.562 152.334 122.137C152.004 123.891 150.791 124.888 149.177 124.695C147.496 124.49 146.614 123.442 146.579 121.783C146.52 119.162 146.551 116.538 146.543 113.918C146.543 113.212 146.543 112.511 146.543 111.676H106.182C108.249 113.141 109.828 114.359 111.501 115.419C113.348 116.589 114.056 118.142 114.052 120.341C113.997 140.137 114.021 159.93 114.021 179.727V182.288C117.458 182.548 121.733 181.5 121.776 187.032H156.952V180.341C156.197 180.306 155.504 180.247 154.811 180.247C144.787 180.239 134.768 180.243 124.745 180.243C124.221 180.243 123.698 180.255 123.174 180.239C120.961 180.176 119.678 179.147 119.619 177.406C119.56 175.629 120.938 174.379 123.209 174.36C128.382 174.312 133.559 174.344 138.733 174.344C141.268 174.344 143.803 174.344 146.547 174.344V171.799C146.547 159.674 146.547 147.545 146.547 135.421C146.547 134.699 146.532 133.974 146.618 133.261C146.803 131.74 147.791 130.889 149.228 130.775C150.665 130.657 151.799 131.342 152.181 132.816C152.39 133.628 152.433 134.495 152.433 135.338C152.449 147.462 152.445 159.591 152.445 171.716V174.344C154.449 174.344 156.319 174.32 158.189 174.348C161.563 174.395 162.929 175.751 162.972 179.151C163.011 182.166 163.007 185.18 162.972 188.199L162.964 188.191ZM84.557 16.4119H110.694V5.64269H84.557V16.4119V16.4119ZM50.0148 64.1934H113.099C111.371 50.7881 97.844 36.2795 79.0887 37.6468C64.538 38.7107 49.4755 52.3761 50.0148 64.1934V64.1934ZM121.442 71.5738C121.898 71.5738 122.383 71.6605 122.808 71.5384C123.146 71.4399 123.414 71.0852 123.713 70.8449C123.426 70.6478 123.166 70.3641 122.851 70.2735C122.485 70.1711 122.072 70.2341 121.678 70.2341C94.9111 70.2341 68.1402 70.2341 41.3734 70.2341C40.9167 70.2341 40.4324 70.1592 40.0073 70.2853C39.7277 70.3681 39.5348 70.7503 39.3065 70.9946C39.523 71.1798 39.7199 71.4872 39.964 71.5266C40.4718 71.6133 41.0072 71.566 41.5308 71.566C54.8808 71.566 68.2347 71.566 81.5847 71.566C94.9347 71.566 108.159 71.566 121.442 71.566V71.5738ZM55.9713 119.576C55.306 120.057 54.8651 121.298 54.8611 122.185C54.7981 141.52 54.8139 160.86 54.8178 180.196C54.8178 180.889 54.8887 181.579 54.9281 182.268H63.7427C63.7427 181.248 63.7349 180.345 63.7427 179.443C63.8333 169.683 63.5774 159.902 64.1089 150.166C64.6797 139.692 75.9983 132.26 86.0334 135.251C94.3245 137.722 99.0881 144.168 99.1314 153.133C99.1747 162.113 99.1432 171.093 99.1432 180.073C99.1432 180.771 99.1432 181.468 99.1432 182.268H108.111V169.403C108.111 153.606 108.123 137.808 108.08 122.011C108.08 121.263 107.844 120.191 107.324 119.816C98.7692 113.665 90.1553 107.605 81.5571 101.525C81.2461 101.694 81.002 101.797 80.7895 101.947C72.4984 107.802 64.1915 113.634 55.9635 119.58L55.9713 119.576ZM93.1158 151.249C92.919 144.72 86.553 139.704 80.1162 140.594C73.7227 141.481 69.6796 146.296 69.652 153.196C69.6126 162.361 69.6402 171.523 69.652 180.688C69.652 181.189 69.7347 181.689 69.7859 182.28H93.2497C93.2497 180.097 93.2536 178.139 93.2497 176.18C93.2261 167.87 93.3678 159.552 93.1198 151.245L93.1158 151.249ZM48.9164 182.276V179.51C48.9164 159.914 48.944 140.318 48.881 120.723C48.8731 118.24 49.6211 116.459 51.7825 115.175C53.373 114.229 54.8257 113.047 56.7784 111.664H16.571V174.336C17.4528 174.336 18.1615 174.336 18.8741 174.336C25.425 174.336 31.9721 174.328 38.5191 174.348C39.3616 174.348 40.2356 174.399 41.0348 174.64C42.393 175.049 43.0072 176.101 42.9284 177.5C42.8497 178.911 42.0623 179.821 40.6962 180.117C40.0033 180.266 39.2632 180.231 38.5427 180.231C28.4564 180.239 18.3701 180.235 8.28777 180.235C7.52795 180.235 6.76814 180.235 6.01225 180.235V187.001H41.2434C41.2907 181.492 45.5307 182.568 48.9125 182.272L48.9164 182.276ZM115.69 188.431H47.2984V194.972H115.694V188.431H115.69ZM140.327 149.689C140.327 153.881 140.343 158.074 140.319 162.267C140.303 164.93 139.272 165.986 136.658 166.002C132.666 166.03 128.674 166.034 124.678 166.002C122.3 165.982 121.15 164.911 121.139 162.523C121.095 154.008 121.095 145.492 121.139 136.977C121.15 134.526 122.328 133.415 124.82 133.391C128.745 133.352 132.674 133.352 136.603 133.391C139.225 133.415 140.303 134.506 140.319 137.115C140.347 141.308 140.327 145.5 140.327 149.693V149.689ZM134.311 139.456H127.146V160.009H134.311V139.456ZM41.7592 149.724C41.7592 153.917 41.7789 158.106 41.7513 162.298C41.7316 165.001 40.7553 165.982 38.0979 165.998C34.1728 166.022 30.2438 166.022 26.3187 165.998C23.7519 165.982 22.681 165.001 22.6692 162.475C22.6298 153.96 22.6298 145.449 22.6692 136.934C22.681 134.435 23.7834 133.407 26.3345 133.383C30.2595 133.344 34.1885 133.344 38.1136 133.383C40.7198 133.411 41.7316 134.475 41.7513 137.146C41.7789 141.339 41.7592 145.528 41.7592 149.72V149.724ZM35.7554 139.412H28.6612V160.005H35.7554V139.412ZM57.2902 93.5535C57.2154 90.543 57.2114 87.5286 57.2902 84.5221C57.3453 82.4809 58.4634 81.4761 60.5499 81.417C62.2507 81.3697 63.9514 81.4091 65.6521 81.4091C67.4828 81.4091 69.3174 81.3579 71.148 81.4249C73.0928 81.4958 74.207 82.5558 74.2582 84.4945C74.3369 87.505 74.333 90.5155 74.266 93.5259C74.2227 95.575 73.1204 96.694 71.0732 96.7334C67.5418 96.8004 64.0065 96.7965 60.4791 96.7334C58.4161 96.698 57.3414 95.6262 57.2902 93.5496V93.5535ZM63.2664 90.7637H68.282V87.4025H63.2664V90.7637ZM88.738 93.7151C88.6435 90.6416 88.6435 87.5601 88.7301 84.4866C88.7892 82.4494 89.9152 81.4682 92.0174 81.4131C93.7812 81.3697 95.5488 81.4052 97.3165 81.4052C99.0172 81.4052 100.718 81.3658 102.419 81.417C104.501 81.4761 105.643 82.5046 105.698 84.526C105.781 87.5365 105.777 90.547 105.698 93.5575C105.647 95.6025 104.533 96.698 102.474 96.7334C98.9424 96.7965 95.4071 96.7965 91.8797 96.7334C89.9033 96.698 88.7971 95.6577 88.738 93.7151ZM94.73 90.7479H99.7495V87.4183H94.73V90.7479ZM72.8488 126.448C78.5376 126.46 84.2303 126.48 89.9191 126.444C92.3363 126.428 93.5607 125.404 93.5883 123.556C93.6198 121.641 92.3481 120.601 89.8207 120.565C87.0727 120.53 84.3287 120.557 81.5808 120.557C78.7029 120.557 75.8211 120.459 72.9511 120.612C71.9393 120.668 70.6677 121.089 70.0536 121.806C69.5142 122.433 69.4355 123.788 69.6796 124.679C70.0772 126.141 71.4748 126.444 72.8527 126.448H72.8488Z" fill="black"/>
</svg>
