<?xml version="1.0" encoding="utf-8"?>
<!-- Generator: Adobe Illustrator 26.3.1, SVG Export Plug-In . SVG Version: 6.00 Build 0)  -->
<svg version="1.1" id="Layer_1" xmlns="http://www.w3.org/2000/svg" xmlns:xlink="http://www.w3.org/1999/xlink" x="0px" y="0px"
	 viewBox="0 0 448 570" style="enable-background:new 0 0 448 570;" xml:space="preserve">
<style type="text/css">
	.st0{fill:#534741;}
	.st1{fill:#F2F2F2;}
	.st2{fill:#DDDDDD;}
	.st3{fill:#E6E6E6;}
	.st4{fill:#FF5959;}
	.st5{fill:#B3B3B3;}
</style>
<rect x="-37.3" y="95.8" transform="matrix(0.139 -0.9903 0.9903 0.139 -89.3004 467.2604)" class="st0" width="522.8" height="378.4"/>
<polygon class="st1" points="404,547 25,547 25,66.9 79.2,24 404,24 "/>
<polygon class="st2" points="25.7,67 67.6,79.9 79.2,24.1 "/>
<rect x="55" y="109" class="st3" width="319" height="11"/>
<rect x="55" y="151" class="st3" width="319" height="11"/>
<rect x="55" y="193" class="st3" width="319" height="10"/>
<rect x="55" y="234" class="st3" width="319" height="11"/>
<rect x="55" y="276" class="st3" width="319" height="10"/>
<rect x="55" y="316" class="st3" width="319" height="11"/>
<rect x="55" y="358" class="st3" width="163" height="11"/>
<rect x="70" y="428" class="st4" width="91" height="9"/>
<path class="st5" d="M427.5,498.2l4.8-21.7l0,0l1.9-9.1c1-4.6-1.8-8.9-6.2-9.7l-38.6-6.3c-18.5-23.4,5.9-63.2,5.9-63.2l-0.1,0
	c2.8-3.5,4.9-7.7,5.9-12.3c3.2-14.8-5.8-28.7-20-31.1c-14.2-2.3-28.3,7.9-31.4,22.7c-1,4.6-0.8,9.2,0.4,13.3l-0.3,0
	c0,0,6.4,44.8-20.5,60.9l-37.9-6.2c-4.4-0.7-8.8,2.4-9.8,7.1l-2.6,12.3l-0.9,4.5L427.5,498.2z"/>
<rect x="70" y="443" class="st4" width="45" height="9"/>
<path class="st4" d="M198,463H57v-48h141V463z M64,456h127v-34H64V456z"/>
<rect x="335.7" y="386.6" transform="matrix(0.2663 -0.9639 0.9639 0.2663 -200.6845 674.1939)" class="st4" width="13.7" height="164.7"/>
<path class="st0" d="M343.2,363.2c-4.1,14.8,4.6,30,19.3,34.1c14.8,4.1,30-4.6,34.1-19.3c4.1-14.8-4.6-30-19.3-34.1
	C362.6,339.8,347.3,348.5,343.2,363.2z"/>
<path class="st0" d="M390.2,390c0,0-31.3,42.6-5.4,68.7l-31.4,9.7l-10.1-9.1L366,377L390.2,390z"/>
<path class="st0" d="M342.8,376.9c0,0,5,52.7-30.6,61.7l21.9,24.4l13.4-2.6l22.7-82.1L342.8,376.9z"/>
<path class="st0" d="M267.5,431.4c1.3-4.6,6-7.3,10.6-6l142.1,39.3c4.6,1.3,7.3,6,6,10.6l-4,14.6L263.4,446L267.5,431.4z"/>
</svg>
