<svg width="177" height="177" viewBox="0 0 177 177" fill="none" xmlns="http://www.w3.org/2000/svg">
<path d="M102.232 24.3911C99.3618 20.6633 98.2442 16.4564 99.2664 11.7944C100.899 4.34465 108.081 -0.855887 115.326 0.116982C123.509 1.21481 129.103 7.89696 128.602 15.9744C128.113 23.8348 121.53 29.8802 113.445 29.8505C100.116 29.7999 87.9482 33.4355 77.2201 41.4178C64.9632 50.5366 57.3194 62.6305 54.3423 77.6103C53.8179 80.2403 53.5795 82.9298 53.1712 85.8633C54.0294 85.8633 54.6225 85.8633 55.2155 85.8633C79.0945 85.8633 102.974 85.8782 126.853 85.8127C127.818 85.8127 129.019 85.3189 129.713 84.6465C134.699 79.806 139.604 74.8821 144.482 69.9345C145.683 68.7147 146.971 68.1345 148.714 68.1494C156.838 68.2148 164.961 68.191 173.085 68.1672C174.652 68.1613 176.11 68.3487 176.768 69.988C177.415 71.5916 176.616 72.7846 175.484 73.9033C170.537 78.7825 165.626 83.6945 160.122 89.1717C160.804 89.5465 161.51 89.7548 161.972 90.213C166.439 94.6162 170.856 99.0729 175.314 103.485C176.467 104.625 177.448 105.809 176.786 107.519C176.119 109.254 174.572 109.432 172.957 109.429C164.896 109.417 156.832 109.403 148.771 109.441C147.054 109.45 145.734 108.891 144.521 107.662C139.646 102.712 134.729 97.7996 129.749 92.9531C129.091 92.3134 127.976 91.8106 127.073 91.8076C103.072 91.7452 79.0707 91.7571 55.0665 91.763C54.5271 91.763 53.9877 91.8285 53.356 91.8701C53.5914 97.9692 54.7625 103.783 56.9469 109.337C63.9053 127.045 76.4602 138.955 94.543 144.967C100.661 147.002 107.012 147.719 113.433 147.731C121.709 147.746 128.405 154.309 128.274 162.372C128.134 170.851 121.48 177.346 113.076 176.986C107.476 176.745 103.203 174.022 100.637 169.054C98.1072 164.154 98.432 159.221 101.308 154.491C101.591 154.024 101.91 153.58 102.196 153.152C69.4422 145.637 51.1418 125.251 46.9608 91.882H22.5781C22.5781 95.6664 22.5781 99.3377 22.5781 103.009C22.5781 103.684 22.5662 104.36 22.5781 105.038C22.605 106.457 22.1013 107.555 20.7335 108.135C19.3299 108.73 18.2183 108.171 17.2439 107.201C14.1029 104.08 10.9739 100.947 7.83888 97.8204C5.66345 95.6485 3.46418 93.4975 1.31856 91.2929C-0.409864 89.5168 -0.448604 88.053 1.25896 86.3334C6.58726 80.9633 11.9603 75.6378 17.3065 70.2885C18.3226 69.271 19.6547 68.7295 20.7901 69.5328C21.6484 70.1397 22.453 71.4429 22.4947 72.4663C22.6795 76.8189 22.5722 81.1834 22.5722 85.7056H46.9787C51.0405 52.3871 69.3826 32.0253 102.229 24.4L102.232 24.3911ZM104.815 15.1384C104.827 19.9849 108.761 23.9419 113.582 23.9597C118.377 23.9746 122.374 20.0117 122.427 15.1831C122.481 10.289 118.458 6.26956 113.535 6.30229C108.68 6.33501 104.803 10.2652 104.815 15.1384V15.1384ZM113.69 171.211C118.553 171.175 122.463 167.23 122.433 162.393C122.4 157.564 118.44 153.616 113.615 153.604C108.71 153.595 104.753 157.621 104.815 162.559C104.875 167.442 108.779 171.247 113.69 171.208V171.211ZM166.913 74.0788C160.73 74.0788 155.136 74.052 149.543 74.1175C148.967 74.1234 148.288 74.5578 147.847 74.9892C144.554 78.2143 141.306 81.4839 138.052 84.7536C137.786 85.0184 137.611 85.3695 137.265 85.8604C143.127 85.8604 148.72 85.8693 154.311 85.8425C154.707 85.8425 155.217 85.7175 155.482 85.4557C159.186 81.8082 162.854 78.128 166.91 74.0788H166.913ZM137.041 91.7571C141.058 95.7795 144.67 99.4299 148.345 103.018C148.714 103.381 149.45 103.509 150.016 103.512C155.172 103.548 160.33 103.536 165.486 103.524C165.817 103.524 166.144 103.402 166.77 103.277C162.935 99.4627 159.299 95.83 155.634 92.2271C155.363 91.9624 154.88 91.7809 154.495 91.7779C148.86 91.7481 143.222 91.7571 137.044 91.7571H137.041ZM16.5942 79.9934C14.6751 81.8826 12.7083 83.8224 10.7653 85.7384H16.5942V79.9934V79.9934ZM10.9947 91.8106C12.8602 93.6998 14.7883 95.6515 16.5167 97.4039V91.8106H10.9947Z" fill="black"/>
</svg>
