<?xml version="1.0" encoding="UTF-8" standalone="no"?>
<!-- Created with Inkscape (http://www.inkscape.org/) -->

<svg
   width="85.408424mm"
   height="95.121666mm"
   viewBox="0 0 85.408424 95.121667"
   version="1.1"
   id="svg5"
   xml:space="preserve"
   inkscape:version="1.2.2 (b0a8486, 2022-12-01)"
   sodipodi:docname="predictable.svg"
   xmlns:inkscape="http://www.inkscape.org/namespaces/inkscape"
   xmlns:sodipodi="http://sodipodi.sourceforge.net/DTD/sodipodi-0.dtd"
   xmlns="http://www.w3.org/2000/svg"
   xmlns:svg="http://www.w3.org/2000/svg"><sodipodi:namedview
     id="namedview7"
     pagecolor="#ffffff"
     bordercolor="#000000"
     borderopacity="0.25"
     inkscape:showpageshadow="2"
     inkscape:pageopacity="0.0"
     inkscape:pagecheckerboard="0"
     inkscape:deskcolor="#d1d1d1"
     inkscape:document-units="mm"
     showgrid="false"
     inkscape:zoom="0.39711418"
     inkscape:cx="1068.9621"
     inkscape:cy="590.51027"
     inkscape:window-width="1792"
     inkscape:window-height="897"
     inkscape:window-x="0"
     inkscape:window-y="25"
     inkscape:window-maximized="0"
     inkscape:current-layer="svg5" /><defs
     id="defs2" /><g
     inkscape:label="圖層 1"
     inkscape:groupmode="layer"
     id="layer1"
     transform="translate(-10.660242,-68.625309)" /><path
     d="M 85.33062,94.706071 H 0.03071178 V 8.2307115 H 85.33062 V 94.706071"
     style="fill:#b3b3b3;fill-opacity:1;fill-rule:nonzero;stroke:none;stroke-width:0.0352778"
     id="path583" /><path
     d="M 85.355315,8.2307115 H 0.03071178 V 36.493861 H 85.355315 V 8.2307115"
     style="fill:#ff5959;fill-opacity:1;fill-rule:nonzero;stroke:none;stroke-width:0.0352778"
     id="path585" /><path
     d="M 85.355315,26.263302 H 0.03071178 V 93.553901 H 71.487619 L 85.355315,79.687621 V 26.263302"
     style="fill:#ffffff;fill-opacity:1;fill-rule:nonzero;stroke:none;stroke-width:0.0352778"
     id="path587" /><path
     d="m 8.0034896,13.567887 c 0,1.169106 -0.9479138,2.11702 -2.1166668,2.11702 -1.169105,0 -2.117019,-0.947914 -2.117019,-2.11702 0,-1.169106 0.947914,-2.116667 2.117019,-2.116667 1.168753,0 2.1166668,0.947561 2.1166668,2.116667"
     style="fill:#ffffff;fill-opacity:1;fill-rule:nonzero;stroke:none;stroke-width:0.0352778"
     id="path589" /><path
     d="m 5.8868228,14.695012 v 0 c -0.624064,0 -1.129241,-0.505883 -1.129241,-1.129594 V 2.2116165 c 0,-0.623711 0.505177,-1.129242 1.129241,-1.129242 v 0 c 0.623712,0 1.129242,0.505531 1.129242,1.129242 V 13.565418 c 0,0.623711 -0.50553,1.129594 -1.129242,1.129594"
     style="fill:#b3b3b3;fill-opacity:1;fill-rule:nonzero;stroke:none;stroke-width:0.0352778"
     id="path591" /><path
     d="m 5.8868228,1.2587635 c -0.525286,0 -0.952852,0.427567 -0.952852,0.952853 V 13.565418 c 0,0.525639 0.427566,0.953205 0.952852,0.953205 0.525287,0 0.952853,-0.427566 0.952853,-0.953205 V 2.2116165 c 0,-0.525286 -0.427566,-0.952853 -0.952853,-0.952853 z m 0,13.6126375 c -0.720019,0 -1.30563,-0.585964 -1.30563,-1.305983 V 2.2116165 c 0,-0.72002 0.585611,-1.30563095 1.30563,-1.30563095 0.72002,0 1.305631,0.58561095 1.305631,1.30563095 V 13.565418 c 0,0.720019 -0.585611,1.305983 -1.305631,1.305983"
     style="fill:#b3b3b3;fill-opacity:1;fill-rule:nonzero;stroke:none;stroke-width:0.0352778"
     id="path593" /><path
     d="m 5.7252508,14.392329 v 0 c -0.623711,0 -1.129242,-0.505884 -1.129242,-1.129595 V 1.9089335 c 0,-0.623712 0.505531,-1.12924195 1.129242,-1.12924195 v 0 c 0.624064,0 1.129242,0.50552995 1.129242,1.12924195 V 13.262734 c 0,0.623711 -0.505178,1.129595 -1.129242,1.129595"
     style="fill:#cccccc;fill-opacity:1;fill-rule:nonzero;stroke:none;stroke-width:0.0352778"
     id="path595" /><path
     d="m 13.095485,13.567887 c 0,1.169106 -0.947914,2.11702 -2.116667,2.11702 -1.1694584,0 -2.1170194,-0.947914 -2.1170194,-2.11702 0,-1.169106 0.947561,-2.116667 2.1170194,-2.116667 1.168753,0 2.116667,0.947561 2.116667,2.116667"
     style="fill:#ffffff;fill-opacity:1;fill-rule:nonzero;stroke:none;stroke-width:0.0352778"
     id="path597" /><path
     d="m 10.978818,14.695012 v 0 c -0.624064,0 -1.1295944,-0.505883 -1.1295944,-1.129594 V 2.2116165 c 0,-0.623711 0.5055304,-1.129242 1.1295944,-1.129242 v 0 c 0.623359,0 1.129242,0.505531 1.129242,1.129242 V 13.565418 c 0,0.623711 -0.505883,1.129594 -1.129242,1.129594"
     style="fill:#b3b3b3;fill-opacity:1;fill-rule:nonzero;stroke:none;stroke-width:0.0352778"
     id="path599" /><path
     d="m 10.978818,1.2587635 c -0.525639,0 -0.953205,0.427567 -0.953205,0.952853 V 13.565418 c 0,0.525639 0.427566,0.953205 0.953205,0.953205 0.525286,0 0.952853,-0.427566 0.952853,-0.953205 V 2.2116165 c 0,-0.525286 -0.427567,-0.952853 -0.952853,-0.952853 z m 0,13.6126375 c -0.720019,0 -1.3059834,-0.585964 -1.3059834,-1.305983 V 2.2116165 c 0,-0.72002 0.5859644,-1.30563095 1.3059834,-1.30563095 0.72002,0 1.305631,0.58561095 1.305631,1.30563095 V 13.565418 c 0,0.720019 -0.585611,1.305983 -1.305631,1.305983"
     style="fill:#b3b3b3;fill-opacity:1;fill-rule:nonzero;stroke:none;stroke-width:0.0352778"
     id="path601" /><path
     d="m 10.817246,14.392329 v 0 c -0.623711,0 -1.1295954,-0.505884 -1.1295954,-1.129595 V 1.9089335 c 0,-0.623712 0.5058844,-1.12924195 1.1295954,-1.12924195 v 0 c 0.623711,0 1.129242,0.50552995 1.129242,1.12924195 V 13.262734 c 0,0.623711 -0.505531,1.129595 -1.129242,1.129595"
     style="fill:#cccccc;fill-opacity:1;fill-rule:nonzero;stroke:none;stroke-width:0.0352778"
     id="path603" /><path
     d="m 30.688514,13.567887 c 0,1.169106 -0.947914,2.11702 -2.116667,2.11702 -1.169106,0 -2.116667,-0.947914 -2.116667,-2.11702 0,-1.169106 0.947561,-2.116667 2.116667,-2.116667 1.168753,0 2.116667,0.947561 2.116667,2.116667"
     style="fill:#ffffff;fill-opacity:1;fill-rule:nonzero;stroke:none;stroke-width:0.0352778"
     id="path605" /><path
     d="m 28.571847,14.695012 v 0 c -0.623711,0 -1.129242,-0.505883 -1.129242,-1.129594 V 2.2116165 c 0,-0.623711 0.505531,-1.129242 1.129242,-1.129242 v 0 c 0.623358,0 1.129242,0.505531 1.129242,1.129242 V 13.565418 c 0,0.623711 -0.505884,1.129594 -1.129242,1.129594"
     style="fill:#b3b3b3;fill-opacity:1;fill-rule:nonzero;stroke:none;stroke-width:0.0352778"
     id="path607" /><path
     d="m 28.571847,1.2587635 c -0.525639,0 -0.952853,0.427567 -0.952853,0.952853 V 13.565418 c 0,0.525639 0.427214,0.953205 0.952853,0.953205 0.525639,0 0.953206,-0.427566 0.953206,-0.953205 V 2.2116165 c 0,-0.525286 -0.427567,-0.952853 -0.953206,-0.952853 z m 0,13.6126375 c -0.720019,0 -1.305631,-0.585964 -1.305631,-1.305983 V 2.2116165 c 0,-0.72002 0.585612,-1.30563095 1.305631,-1.30563095 0.72002,0 1.305983,0.58561095 1.305983,1.30563095 V 13.565418 c 0,0.720019 -0.585963,1.305983 -1.305983,1.305983"
     style="fill:#b3b3b3;fill-opacity:1;fill-rule:nonzero;stroke:none;stroke-width:0.0352778"
     id="path609" /><path
     d="m 28.410628,14.392329 v 0 c -0.624064,0 -1.129595,-0.505884 -1.129595,-1.129595 V 1.9089335 c 0,-0.623712 0.505531,-1.12924195 1.129595,-1.12924195 v 0 c 0.623358,0 1.129241,0.50552995 1.129241,1.12924195 V 13.262734 c 0,0.623711 -0.505883,1.129595 -1.129241,1.129595"
     style="fill:#cccccc;fill-opacity:1;fill-rule:nonzero;stroke:none;stroke-width:0.0352778"
     id="path611" /><path
     d="m 35.780156,13.567887 c 0,1.169106 -0.947561,2.11702 -2.116667,2.11702 -1.169106,0 -2.116667,-0.947914 -2.116667,-2.11702 0,-1.169106 0.947561,-2.116667 2.116667,-2.116667 1.169106,0 2.116667,0.947561 2.116667,2.116667"
     style="fill:#ffffff;fill-opacity:1;fill-rule:nonzero;stroke:none;stroke-width:0.0352778"
     id="path613" /><path
     d="m 33.663489,14.695012 v 0 c -0.623358,0 -1.129242,-0.505883 -1.129242,-1.129594 V 2.2116165 c 0,-0.623711 0.505884,-1.129242 1.129242,-1.129242 v 0 c 0.623711,0 1.129242,0.505531 1.129242,1.129242 V 13.565418 c 0,0.623711 -0.505531,1.129594 -1.129242,1.129594"
     style="fill:#b3b3b3;fill-opacity:1;fill-rule:nonzero;stroke:none;stroke-width:0.0352778"
     id="path615" /><path
     d="m 33.663489,1.2587635 c -0.525286,0 -0.952853,0.427567 -0.952853,0.952853 V 13.565418 c 0,0.525639 0.427567,0.953205 0.952853,0.953205 0.525639,0 0.952853,-0.427566 0.952853,-0.953205 V 2.2116165 c 0,-0.525286 -0.427214,-0.952853 -0.952853,-0.952853 z m 0,13.6126375 c -0.720019,0 -1.305631,-0.585964 -1.305631,-1.305983 V 2.2116165 c 0,-0.72002 0.585612,-1.30563095 1.305631,-1.30563095 0.72002,0 1.305631,0.58561095 1.305631,1.30563095 V 13.565418 c 0,0.720019 -0.585611,1.305983 -1.305631,1.305983"
     style="fill:#b3b3b3;fill-opacity:1;fill-rule:nonzero;stroke:none;stroke-width:0.0352778"
     id="path617" /><path
     d="m 33.50227,14.392329 v 0 c -0.623712,0 -1.129242,-0.505884 -1.129242,-1.129595 V 1.9089335 c 0,-0.623712 0.50553,-1.12924195 1.129242,-1.12924195 v 0 c 0.623711,0 1.129241,0.50552995 1.129241,1.12924195 V 13.262734 c 0,0.623711 -0.50553,1.129595 -1.129241,1.129595"
     style="fill:#cccccc;fill-opacity:1;fill-rule:nonzero;stroke:none;stroke-width:0.0352778"
     id="path619" /><path
     d="m 54.12954,13.567887 c 0,1.169106 -0.947914,2.11702 -2.117019,2.11702 -1.169106,0 -2.116667,-0.947914 -2.116667,-2.11702 0,-1.169106 0.947561,-2.116667 2.116667,-2.116667 1.169105,0 2.117019,0.947561 2.117019,2.116667"
     style="fill:#ffffff;fill-opacity:1;fill-rule:nonzero;stroke:none;stroke-width:0.0352778"
     id="path621" /><path
     d="m 52.012521,14.695012 v 0 c -0.623711,0 -1.129242,-0.505883 -1.129242,-1.129594 V 2.2116165 c 0,-0.623711 0.505531,-1.129242 1.129242,-1.129242 v 0 c 0.624064,0 1.129241,0.505531 1.129241,1.129242 V 13.565418 c 0,0.623711 -0.505177,1.129594 -1.129241,1.129594"
     style="fill:#b3b3b3;fill-opacity:1;fill-rule:nonzero;stroke:none;stroke-width:0.0352778"
     id="path623" /><path
     d="m 52.012874,1.2587635 c -0.525287,0 -0.952853,0.427567 -0.952853,0.952853 V 13.565418 c 0,0.525639 0.427566,0.953205 0.952853,0.953205 0.525286,0 0.952852,-0.427566 0.952852,-0.953205 V 2.2116165 c 0,-0.525286 -0.427566,-0.952853 -0.952852,-0.952853 z m 0,13.6126375 c -0.72002,0 -1.305631,-0.585964 -1.305631,-1.305983 V 2.2116165 c 0,-0.72002 0.585611,-1.30563095 1.305631,-1.30563095 0.720019,0 1.30563,0.58561095 1.30563,1.30563095 V 13.565418 c 0,0.720019 -0.585611,1.305983 -1.30563,1.305983"
     style="fill:#b3b3b3;fill-opacity:1;fill-rule:nonzero;stroke:none;stroke-width:0.0352778"
     id="path625" /><path
     d="m 51.851301,14.392329 v 0 c -0.623711,0 -1.129241,-0.505884 -1.129241,-1.129595 V 1.9089335 c 0,-0.623712 0.50553,-1.12924195 1.129241,-1.12924195 v 0 c 0.623711,0 1.129242,0.50552995 1.129242,1.12924195 V 13.262734 c 0,0.623711 -0.505531,1.129595 -1.129242,1.129595"
     style="fill:#cccccc;fill-opacity:1;fill-rule:nonzero;stroke:none;stroke-width:0.0352778"
     id="path627" /><path
     d="m 59.221535,13.567887 c 0,1.169106 -0.947914,2.11702 -2.117019,2.11702 -1.169106,0 -2.116667,-0.947914 -2.116667,-2.11702 0,-1.169106 0.947561,-2.116667 2.116667,-2.116667 1.169105,0 2.117019,0.947561 2.117019,2.116667"
     style="fill:#ffffff;fill-opacity:1;fill-rule:nonzero;stroke:none;stroke-width:0.0352778"
     id="path629" /><path
     d="m 57.104516,14.695012 v 0 c -0.623712,0 -1.129595,-0.505883 -1.129595,-1.129594 V 2.2116165 c 0,-0.623711 0.505883,-1.129242 1.129595,-1.129242 v 0 c 0.623711,0 1.129241,0.505531 1.129241,1.129242 V 13.565418 c 0,0.623711 -0.50553,1.129594 -1.129241,1.129594"
     style="fill:#b3b3b3;fill-opacity:1;fill-rule:nonzero;stroke:none;stroke-width:0.0352778"
     id="path631" /><path
     d="m 57.104868,1.2587635 c -0.525639,0 -0.953205,0.427567 -0.953205,0.952853 V 13.565418 c 0,0.525639 0.427566,0.953205 0.953205,0.953205 0.525286,0 0.952853,-0.427566 0.952853,-0.953205 V 2.2116165 c 0,-0.525286 -0.427567,-0.952853 -0.952853,-0.952853 z m 0,13.6126375 c -0.720019,0 -1.305983,-0.585964 -1.305983,-1.305983 V 2.2116165 c 0,-0.72002 0.585964,-1.30563095 1.305983,-1.30563095 0.72002,0 1.305631,0.58561095 1.305631,1.30563095 V 13.565418 c 0,0.720019 -0.585611,1.305983 -1.305631,1.305983"
     style="fill:#b3b3b3;fill-opacity:1;fill-rule:nonzero;stroke:none;stroke-width:0.0352778"
     id="path633" /><path
     d="m 56.943296,14.392329 v 0 c -0.624064,0 -1.129594,-0.505884 -1.129594,-1.129595 V 1.9089335 c 0,-0.623712 0.50553,-1.12924195 1.129594,-1.12924195 v 0 c 0.623358,0 1.129242,0.50552995 1.129242,1.12924195 V 13.262734 c 0,0.623711 -0.505884,1.129595 -1.129242,1.129595"
     style="fill:#cccccc;fill-opacity:1;fill-rule:nonzero;stroke:none;stroke-width:0.0352778"
     id="path635" /><path
     d="m 76.747889,13.567887 c 0,1.169106 -0.947561,2.11702 -2.116667,2.11702 -1.169105,0 -2.117019,-0.947914 -2.117019,-2.11702 0,-1.169106 0.947914,-2.116667 2.117019,-2.116667 1.169106,0 2.116667,0.947561 2.116667,2.116667"
     style="fill:#ffffff;fill-opacity:1;fill-rule:nonzero;stroke:none;stroke-width:0.0352778"
     id="path637" /><path
     d="m 74.631222,14.695012 v 0 c -0.623711,0 -1.129242,-0.505883 -1.129242,-1.129594 V 2.2116165 c 0,-0.623711 0.505531,-1.129242 1.129242,-1.129242 v 0 c 0.623711,0 1.129242,0.505531 1.129242,1.129242 V 13.565418 c 0,0.623711 -0.505531,1.129594 -1.129242,1.129594"
     style="fill:#b3b3b3;fill-opacity:1;fill-rule:nonzero;stroke:none;stroke-width:0.0352778"
     id="path639" /><path
     d="m 74.631222,1.2587635 c -0.525286,0 -0.952853,0.427567 -0.952853,0.952853 V 13.565418 c 0,0.525639 0.427567,0.953205 0.952853,0.953205 0.525286,0 0.952853,-0.427566 0.952853,-0.953205 V 2.2116165 c 0,-0.525286 -0.427567,-0.952853 -0.952853,-0.952853 z m 0,13.6126375 c -0.720019,0 -1.30563,-0.585964 -1.30563,-1.305983 V 2.2116165 c 0,-0.72002 0.585611,-1.30563095 1.30563,-1.30563095 0.72002,0 1.305631,0.58561095 1.305631,1.30563095 V 13.565418 c 0,0.720019 -0.585611,1.305983 -1.305631,1.305983"
     style="fill:#b3b3b3;fill-opacity:1;fill-rule:nonzero;stroke:none;stroke-width:0.0352778"
     id="path641" /><path
     d="m 74.46965,14.392329 v 0 c -0.623358,0 -1.129242,-0.505884 -1.129242,-1.129595 V 1.9089335 c 0,-0.623712 0.505884,-1.12924195 1.129242,-1.12924195 v 0 c 0.624064,0 1.129594,0.50552995 1.129594,1.12924195 V 13.262734 c 0,0.623711 -0.50553,1.129595 -1.129594,1.129595"
     style="fill:#cccccc;fill-opacity:1;fill-rule:nonzero;stroke:none;stroke-width:0.0352778"
     id="path643" /><path
     d="m 81.83812,13.567887 c 0,1.169106 -0.945445,2.11702 -2.116667,2.11702 -1.167694,0 -2.115256,-0.947914 -2.115256,-2.11702 0,-1.169106 0.947562,-2.116667 2.115256,-2.116667 1.171222,0 2.116667,0.947561 2.116667,2.116667"
     style="fill:#ffffff;fill-opacity:1;fill-rule:nonzero;stroke:none;stroke-width:0.0352778"
     id="path645" /><path
     d="m 79.721453,14.695012 v 0 c -0.620889,0 -1.128889,-0.505883 -1.128889,-1.129594 V 2.2116165 c 0,-0.623711 0.508,-1.129242 1.128889,-1.129242 v 0 c 0.624417,0 1.132417,0.505531 1.132417,1.129242 V 13.565418 c 0,0.623711 -0.508,1.129594 -1.132417,1.129594"
     style="fill:#b3b3b3;fill-opacity:1;fill-rule:nonzero;stroke:none;stroke-width:0.0352778"
     id="path647" /><path
     d="m 79.721453,1.2587635 c -0.522111,0 -0.9525,0.427567 -0.9525,0.952853 V 13.565418 c 0,0.525639 0.430389,0.953205 0.9525,0.953205 0.525639,0 0.956028,-0.427566 0.956028,-0.953205 V 2.2116165 c 0,-0.525286 -0.430389,-0.952853 -0.956028,-0.952853 z m 0,13.6126375 c -0.719667,0 -1.305278,-0.585964 -1.305278,-1.305983 V 2.2116165 c 0,-0.72002 0.585611,-1.30563095 1.305278,-1.30563095 0.723195,0 1.308806,0.58561095 1.308806,1.30563095 V 13.565418 c 0,0.720019 -0.585611,1.305983 -1.308806,1.305983"
     style="fill:#b3b3b3;fill-opacity:1;fill-rule:nonzero;stroke:none;stroke-width:0.0352778"
     id="path649" /><path
     d="m 79.562703,14.392329 v 0 c -0.624417,0 -1.128889,-0.505884 -1.128889,-1.129595 V 1.9089335 c 0,-0.623712 0.504472,-1.12924195 1.128889,-1.12924195 v 0 c 0.624417,0 1.128889,0.50552995 1.128889,1.12924195 V 13.262734 c 0,0.623711 -0.504472,1.129595 -1.128889,1.129595"
     style="fill:#cccccc;fill-opacity:1;fill-rule:nonzero;stroke:none;stroke-width:0.0352778"
     id="path651" /><path
     d="M 71.487619,93.553901 85.355315,79.687621 H 74.632633 c -1.737078,0 -3.145014,1.40829 -3.145014,3.14536 v 10.72092"
     style="fill:#ff5959;fill-opacity:1;fill-rule:nonzero;stroke:none;stroke-width:0.0352778"
     id="path653" /><path
     d="m 64.526685,57.728901 c 0,11.46619 -9.772855,20.76133 -21.834501,20.76133 -12.057783,0 -21.832843,-9.29514 -21.832843,-20.76133 0,-11.4662 9.77506,-20.76133 21.832843,-20.76133 12.061646,0 21.834501,9.29513 21.834501,20.76133"
     style="fill:#ff5959;fill-opacity:1;fill-rule:nonzero;stroke:none;stroke-width:0.0537792"
     id="path677" /><path
     d="m 41.70725,68.964351 c -0.849334,0 -1.66006,-0.33877 -2.239152,-0.93817 l -8.22144,-8.551 c -1.129507,-1.17573 -1.044021,-3.00014 0.192479,-4.07466 1.235943,-1.07503 3.15577,-0.9927 4.285827,0.1825 l 5.667922,5.89435 8.019038,-10.89983 c 0.959637,-1.30473 2.851334,-1.62252 4.224609,-0.70953 1.373273,0.91352 1.709699,2.71172 0.750062,4.01697 l -10.192008,13.84858 c -0.529456,0.71739 -1.373276,1.16786 -2.28879,1.22449 -0.06618,0.004 -0.132363,0.006 -0.198547,0.006"
     style="fill:#ffffff;fill-opacity:1;fill-rule:nonzero;stroke:none;stroke-width:0.0537792"
     id="path679" /></svg>
