<svg width="223" height="169" viewBox="0 0 223 169" fill="none" xmlns="http://www.w3.org/2000/svg">
<path d="M0 122.4C3.39849 118.341 6.77516 114.266 10.2064 110.234C14.3031 105.427 18.4326 100.653 22.5729 95.879C24.3458 93.8385 26.0042 93.5602 27.6298 94.946C29.2117 96.2937 29.2281 98.1269 27.537 100.102C21.6347 106.993 15.6941 113.851 9.76997 120.726C9.16446 121.429 8.57532 122.155 7.89889 122.957C11.5429 126.094 15.045 129.111 18.7271 132.281C21.1001 129.542 23.3748 126.934 25.6332 124.31C53.1157 92.4144 80.5927 60.5188 108.075 28.6232C110.699 25.5787 112.357 25.6442 115.129 28.8578C144.362 62.7885 173.596 96.7138 202.835 130.639C203.255 131.125 203.713 131.577 204.318 132.232C207.881 129.171 211.383 126.16 215.076 122.979C214.508 122.275 214.001 121.609 213.456 120.976C181.849 84.296 150.243 47.6209 118.636 10.9458C118.26 10.5039 117.878 10.0619 117.491 9.63091C113.77 5.47891 109.21 5.42981 105.55 9.59817C101.475 14.2303 97.4761 18.9334 93.4502 23.6091C74.9249 45.1111 56.4051 66.6186 37.8798 88.1206C35.545 90.8322 33.8267 91.296 32.0811 89.7137C30.3682 88.1642 30.57 86.5766 32.8775 83.8977C55.3414 57.8508 77.7943 31.7822 100.269 5.72989C104.802 0.475781 110.35 -1.34651 116.181 1.02138C118.625 2.00891 120.982 3.8203 122.722 5.82809C144.231 30.6037 165.62 55.4829 187.037 80.3349C198.362 93.4784 209.686 106.622 221.016 119.76C223.777 122.962 223.706 124.168 220.493 126.945C215.992 130.841 211.486 134.731 206.97 138.61C204.422 140.798 202.927 140.694 200.696 138.196C199.562 136.919 198.449 135.62 196.894 133.842C196.894 135.178 196.894 135.866 196.894 136.553C196.894 145.845 196.9 155.142 196.894 164.433C196.894 167.925 195.836 168.995 192.361 169C138.427 169 84.4931 169 30.5591 169C27.2043 169 26.1078 167.909 26.1024 164.575C26.0914 155.284 26.1024 145.987 26.1024 136.695C26.1024 135.986 26.1024 135.271 26.1024 133.858C24.5586 135.626 23.4185 136.957 22.2511 138.261C20.1018 140.662 18.5799 140.787 16.136 138.692C11.3956 134.633 6.6606 130.563 1.96381 126.454C1.21647 125.8 0.654605 124.932 0.00545504 124.157V122.411L0 122.4ZM190.91 128.053C190.195 126.705 189.873 125.69 189.235 124.943C180.884 115.177 172.505 105.438 164.066 95.7481C163.493 95.0933 162.407 94.5205 161.562 94.515C128.172 94.455 94.7758 94.455 61.3855 94.5041C60.6382 94.5041 59.6617 94.9078 59.1817 95.4589C50.5627 105.372 41.9874 115.33 33.4612 125.325C32.9102 125.969 32.8011 126.994 32.4466 127.966H88.3989C89.3753 127.966 90.1663 127.169 90.1663 126.198C90.1609 122.231 90.139 118.379 90.1827 114.533C90.21 112.007 91.4264 110.692 93.903 110.681C104.999 110.637 116.089 110.637 127.184 110.681C130.337 110.692 132.89 113.262 132.857 116.415C132.857 116.606 132.857 116.803 132.857 116.994C132.857 120.087 132.857 123.175 132.857 126.291C132.857 127.267 133.648 128.058 134.625 128.058H190.926L190.91 128.053ZM157.318 87.8587C141.869 69.9249 126.737 52.3676 111.501 34.6738C96.1941 52.444 81.0782 69.9958 65.695 87.8587H157.318ZM96.8651 119.012V160.565C96.8651 161.542 97.6561 162.333 98.6325 162.333H124.375C125.351 162.333 126.142 161.542 126.142 160.565V119.012C126.142 118.036 125.351 117.245 124.375 117.245H98.6325C97.6561 117.245 96.8651 118.036 96.8651 119.012ZM88.3225 158.77H32.7848V162.306H88.328C89.3044 162.306 90.0954 161.514 90.0954 160.538C90.0954 159.561 89.3044 158.77 88.328 158.77H88.3225ZM134.685 162.295H190.234V158.765H134.685C133.708 158.765 132.917 159.556 132.917 160.532C132.917 161.509 133.708 162.3 134.685 162.3V162.295ZM61.391 149.517C64.7731 144.459 67.9207 139.756 71.1664 134.9H51.5992C54.9213 139.86 58.0525 144.535 61.391 149.517V149.517ZM151.765 134.802C155.152 139.854 158.311 144.563 161.633 149.506C164.977 144.497 168.119 139.789 171.452 134.802H151.765V134.802ZM85.3768 149.233C82.6929 145.223 80.0963 141.349 77.407 137.334C74.0739 142.315 70.9264 147.023 67.6097 151.983H83.9094C85.3222 151.983 86.1623 150.406 85.3768 149.233V149.233ZM145.6 137.339C142.911 141.349 140.314 145.228 137.685 149.146C136.9 150.319 137.74 151.896 139.153 151.896H155.338C152.037 146.958 148.912 142.288 145.6 137.339ZM55.1941 152.016C51.8174 146.969 48.6917 142.298 45.3641 137.334C42.0365 142.304 38.8671 147.045 35.5341 152.016H55.1886H55.1941ZM167.879 151.917H187.413C184.086 146.952 180.927 142.244 177.638 137.328C174.288 142.337 171.163 147.007 167.879 151.917ZM32.7357 143.772L33.1175 143.886C35.0868 140.934 37.0561 137.977 39.1508 134.846H32.7357V143.772V143.772ZM90.0518 138.643V136.575C90.0518 135.599 89.2608 134.807 88.2843 134.807H86.8987C85.4859 134.807 84.6458 136.384 85.4313 137.557L86.8169 139.625C87.7879 141.076 90.0518 140.389 90.0518 138.643V138.643ZM139.371 134.873H134.783C133.807 134.873 133.016 135.664 133.016 136.641V138.556C133.016 140.302 135.279 140.989 136.25 139.538C137.281 137.994 138.302 136.471 139.371 134.878V134.873ZM183.802 134.769C186.011 138.07 187.97 141 190.212 144.35V134.769H183.802Z" fill="black"/>
</svg>
