<svg width="211" height="165" viewBox="0 0 211 165" fill="none" xmlns="http://www.w3.org/2000/svg">
<path d="M188.354 121.723C188.705 121.382 189.035 121.021 189.36 120.66C190.212 121.646 191.058 122.631 191.91 123.617C191.993 123.715 192.08 123.813 192.168 123.906C190.94 123.096 189.665 122.368 188.354 121.723ZM209.118 113.304C198.398 100.874 187.683 88.4393 176.968 76.0043C156.704 52.492 136.467 28.9539 116.115 5.51392C114.469 3.61436 112.234 1.90578 109.927 0.96632C104.409 -1.27393 99.1602 0.450134 94.8711 5.42101C73.6063 30.0689 52.3621 54.7323 31.1127 79.3905C28.9295 81.925 28.7385 83.4271 30.3592 84.8931C32.0108 86.39 33.6366 85.9512 35.8457 83.3858C53.3737 63.0429 70.8965 42.6948 88.4245 22.3519C92.2336 17.9282 96.0169 13.4838 99.8725 9.09625C103.336 5.15259 107.651 5.19905 111.171 9.12723C111.537 9.53501 111.893 9.95312 112.255 10.3712C134.175 35.8037 156.09 61.2311 178.005 86.6636C187.115 88.5012 194.073 96.3472 194.563 105.871C197.03 108.736 199.502 111.601 201.969 114.465C202.486 115.064 202.966 115.694 203.502 116.36C200.101 119.287 196.87 122.064 193.593 124.882C195.27 126.1 196.855 127.463 198.341 128.965C201.773 126.012 205.2 123.055 208.628 120.097C211.668 117.464 211.735 116.324 209.123 113.299L209.118 113.304ZM131.656 143.707H139.971C139.15 145.793 138.459 147.961 137.927 150.206H127.429C126.505 150.206 125.757 150.955 125.757 151.879C125.757 152.803 126.505 153.551 127.429 153.551H137.251C136.91 155.616 136.699 157.732 136.616 159.885C100.714 159.885 64.8113 159.885 28.9088 159.885C25.7346 159.885 24.6971 158.852 24.692 155.698C24.6817 146.908 24.692 138.112 24.692 129.321V126.637C23.2313 128.309 22.1526 129.569 21.0481 130.803C19.0145 133.074 17.5745 133.193 15.2622 131.21C10.7769 127.37 6.29687 123.519 1.85293 119.632C1.14582 119.013 0.614203 118.192 0 117.459C0 116.866 0 116.401 0 115.807C3.21553 111.967 6.41042 108.111 9.65692 104.296C13.5331 99.7489 17.4403 95.2323 21.3577 90.7156C23.0352 88.7851 24.6042 88.5218 26.1423 89.833C27.6391 91.1079 27.6546 92.8423 26.0546 94.7109C20.47 101.23 14.8493 107.719 9.24401 114.223C8.6711 114.889 8.11367 115.575 7.47366 116.334C10.9215 119.302 14.2351 122.157 17.719 125.156C19.9642 122.564 22.1165 120.097 24.2533 117.614C50.2562 87.4379 76.254 57.2616 102.257 27.0853C104.74 24.205 106.309 24.267 108.931 27.3073C126.825 48.0786 144.725 68.8448 162.624 89.611C160.875 90.7518 159.311 92.1506 157.979 93.7508C157.066 92.6978 156.152 91.6344 155.233 90.5814C154.691 89.962 153.664 89.42 152.864 89.4148C121.271 89.3581 89.6736 89.3581 58.0809 89.4045C57.3738 89.4045 56.4499 89.7865 55.9957 90.3078C47.8407 99.687 39.727 109.107 31.6598 118.564C31.1385 119.173 31.0353 120.143 30.6998 121.062H83.64C84.5638 121.062 85.3122 120.309 85.3122 119.39C85.3071 115.637 85.2864 111.993 85.3277 108.354C85.3535 105.964 86.5045 104.72 88.8478 104.709C99.346 104.668 109.839 104.668 120.337 104.709C123.321 104.72 125.736 107.151 125.705 110.135C125.705 110.315 125.705 110.501 125.705 110.682C125.705 113.608 125.705 116.53 125.705 119.478C125.705 120.402 126.453 121.15 127.377 121.15H158.913C159.094 121.341 159.28 121.532 159.466 121.718C156.41 123.22 153.561 125.181 150.985 127.53H143.61C144.652 129.084 145.674 130.607 146.686 132.114C145.308 133.828 144.049 135.665 142.923 137.616C141.225 135.077 139.527 132.542 137.783 129.93C135.238 133.724 132.781 137.394 130.294 141.101C129.55 142.21 130.345 143.702 131.682 143.702L131.656 143.707ZM62.1532 83.1277H148.844C134.227 66.1607 119.909 49.5498 105.493 32.8099C91.0104 49.622 76.7082 66.2278 62.1532 83.1277V83.1277ZM80.827 130.142C81.2657 130.792 81.6993 131.443 82.138 132.098C83.0567 133.471 85.1987 132.821 85.1987 131.169V129.213C85.1987 128.289 84.4503 127.54 83.5264 127.54H82.2154C80.8786 127.54 80.0838 129.032 80.827 130.142V130.142ZM73.2346 129.93C70.081 134.643 67.1029 139.098 63.9648 143.79H79.387C80.7238 143.79 81.5186 142.298 80.7754 141.188C78.236 137.394 75.7792 133.729 73.2346 129.93V129.93ZM48.8162 127.628C51.9595 132.32 54.9221 136.744 58.0809 141.457C61.2809 136.672 64.259 132.222 67.33 127.628H48.8162V127.628ZM42.9168 129.925C39.7683 134.628 36.7696 139.113 33.616 143.816H52.2124C49.0175 139.041 46.06 134.622 42.9116 129.925H42.9168ZM30.963 136.021L31.3243 136.13C33.1876 133.337 35.0508 130.539 37.0328 127.576H30.963V136.021V136.021ZM85.2348 151.884C85.2348 150.96 84.4864 150.211 83.5625 150.211H31.0147V153.556H83.5677C84.4916 153.556 85.24 152.808 85.24 151.884H85.2348ZM119.341 112.597C119.341 111.673 118.593 110.924 117.669 110.924H93.3124C92.3885 110.924 91.6401 111.673 91.6401 112.597V151.91C91.6401 152.833 92.3885 153.582 93.3124 153.582H117.669C118.593 153.582 119.341 152.833 119.341 151.91V112.597V112.597ZM128.905 132.011C129.881 130.55 130.846 129.11 131.857 127.602H127.517C126.593 127.602 125.844 128.351 125.844 129.275V131.087C125.844 132.738 127.986 133.389 128.905 132.016V132.011ZM206.966 161.764C206.966 163.55 205.515 165 203.729 165C201.944 165 200.493 163.55 200.493 161.764C200.493 143.723 188.56 129.048 173.897 129.048C159.233 129.048 147.3 143.723 147.3 161.764C147.3 163.55 145.85 165 144.064 165C142.278 165 140.828 163.55 140.828 161.764C140.828 142.03 153.205 125.661 169.236 122.972C162.294 120.949 157.2 114.532 157.2 106.945C157.2 97.7409 164.689 90.2511 173.892 90.2511C183.094 90.2511 190.583 97.7409 190.583 106.945C190.583 114.532 185.494 120.954 178.547 122.972C194.584 125.667 206.96 142.03 206.96 161.764H206.966ZM173.897 117.165C179.533 117.165 184.116 112.581 184.116 106.945C184.116 101.308 179.533 96.724 173.897 96.724C168.261 96.724 163.677 101.308 163.677 106.945C163.677 112.581 168.261 117.165 173.897 117.165Z" fill="black"/>
</svg>
