<?xml version="1.0" encoding="UTF-8" standalone="no"?>
<!-- Created with Inkscape (http://www.inkscape.org/) -->

<svg
   width="85.408424mm"
   height="95.121666mm"
   viewBox="0 0 85.408424 95.121667"
   version="1.1"
   id="svg5"
   xml:space="preserve"
   inkscape:version="1.2.2 (b0a8486, 2022-12-01)"
   sodipodi:docname="Unpredictable.svg"
   xmlns:inkscape="http://www.inkscape.org/namespaces/inkscape"
   xmlns:sodipodi="http://sodipodi.sourceforge.net/DTD/sodipodi-0.dtd"
   xmlns="http://www.w3.org/2000/svg"
   xmlns:svg="http://www.w3.org/2000/svg"><sodipodi:namedview
     id="namedview7"
     pagecolor="#ffffff"
     bordercolor="#000000"
     borderopacity="0.25"
     inkscape:showpageshadow="2"
     inkscape:pageopacity="0.0"
     inkscape:pagecheckerboard="0"
     inkscape:deskcolor="#d1d1d1"
     inkscape:document-units="mm"
     showgrid="false"
     inkscape:zoom="1.1027596"
     inkscape:cx="419.40237"
     inkscape:cy="202.67336"
     inkscape:window-width="1792"
     inkscape:window-height="897"
     inkscape:window-x="0"
     inkscape:window-y="25"
     inkscape:window-maximized="0"
     inkscape:current-layer="svg5" /><defs
     id="defs2" /><g
     inkscape:label="圖層 1"
     inkscape:groupmode="layer"
     id="layer1"
     transform="translate(-10.660242,-68.625309)" /><path
     d="M 85.299905,95.121666 H 0 V 8.646298 h 85.299905 v 86.475368"
     style="fill:#b3b3b3;fill-opacity:1;fill-rule:nonzero;stroke:none;stroke-width:0.0352778"
     id="path583-7" /><path
     d="M 85.324605,8.646298 H 0 V 36.909446 H 85.324605 V 8.646298"
     style="fill:#ff5959;fill-opacity:1;fill-rule:nonzero;stroke:none;stroke-width:0.0352778"
     id="path585-9" /><path
     d="M 85.324605,26.678888 H 0 V 93.969496 H 71.4569 L 85.324605,80.103206 V 26.678888"
     style="fill:#ffffff;fill-opacity:1;fill-rule:nonzero;stroke:none;stroke-width:0.0352778"
     id="path587-0" /><path
     d="m 7.9727697,13.983473 c 0,1.169106 -0.94791,2.11702 -2.11666,2.11702 -1.1691096,0 -2.1170196,-0.947914 -2.1170196,-2.11702 0,-1.169106 0.94791,-2.116667 2.1170196,-2.116667 1.16875,0 2.11666,0.947561 2.11666,2.116667"
     style="fill:#ffffff;fill-opacity:1;fill-rule:nonzero;stroke:none;stroke-width:0.0352778"
     id="path589-2" /><path
     d="m 5.8561097,15.110598 v 0 c -0.6240696,0 -1.1292396,-0.505883 -1.1292396,-1.129594 V 2.627203 c 0,-0.623711 0.50517,-1.129242 1.1292396,-1.129242 v 0 c 0.62371,0 1.12924,0.505531 1.12924,1.129242 v 11.353801 c 0,0.623711 -0.50553,1.129594 -1.12924,1.129594"
     style="fill:#b3b3b3;fill-opacity:1;fill-rule:nonzero;stroke:none;stroke-width:0.0352778"
     id="path591-3" /><path
     d="m 5.8561097,1.67435 c -0.5252896,0 -0.9528596,0.427567 -0.9528596,0.952853 v 11.353801 c 0,0.525639 0.42757,0.953205 0.9528596,0.953205 0.52528,0 0.95285,-0.427566 0.95285,-0.953205 V 2.627203 c 0,-0.525286 -0.42757,-0.952853 -0.95285,-0.952853 z m 0,13.612637 c -0.7200196,0 -1.3056296,-0.585964 -1.3056296,-1.305983 V 2.627203 c 0,-0.72002 0.58561,-1.305631 1.3056296,-1.305631 0.72002,0 1.30563,0.585611 1.30563,1.305631 v 11.353801 c 0,0.720019 -0.58561,1.305983 -1.30563,1.305983"
     style="fill:#b3b3b3;fill-opacity:1;fill-rule:nonzero;stroke:none;stroke-width:0.0352778"
     id="path593-9" /><path
     d="m 5.6945397,14.807915 v 0 c -0.6237196,0 -1.1292496,-0.505884 -1.1292496,-1.129595 V 2.32452 c 0,-0.623712 0.50553,-1.129242 1.1292496,-1.129242 v 0 c 0.62406,0 1.12924,0.50553 1.12924,1.129242 v 11.3538 c 0,0.623711 -0.50518,1.129595 -1.12924,1.129595"
     style="fill:#cccccc;fill-opacity:1;fill-rule:nonzero;stroke:none;stroke-width:0.0352778"
     id="path595-9" /><path
     d="m 13.06477,13.983473 c 0,1.169106 -0.94791,2.11702 -2.11667,2.11702 -1.1694603,0 -2.1170203,-0.947914 -2.1170203,-2.11702 0,-1.169106 0.94756,-2.116667 2.1170203,-2.116667 1.16876,0 2.11667,0.947561 2.11667,2.116667"
     style="fill:#ffffff;fill-opacity:1;fill-rule:nonzero;stroke:none;stroke-width:0.0352778"
     id="path597-7" /><path
     d="m 10.9481,15.110598 v 0 c -0.62406,0 -1.1295903,-0.505883 -1.1295903,-1.129594 V 2.627203 c 0,-0.623711 0.5055303,-1.129242 1.1295903,-1.129242 v 0 c 0.62336,0 1.12924,0.505531 1.12924,1.129242 v 11.353801 c 0,0.623711 -0.50588,1.129594 -1.12924,1.129594"
     style="fill:#b3b3b3;fill-opacity:1;fill-rule:nonzero;stroke:none;stroke-width:0.0352778"
     id="path599-0" /><path
     d="m 10.9481,1.67435 c -0.52564,0 -0.9532003,0.427567 -0.9532003,0.952853 v 11.353801 c 0,0.525639 0.4275603,0.953205 0.9532003,0.953205 0.52529,0 0.95286,-0.427566 0.95286,-0.953205 V 2.627203 c 0,-0.525286 -0.42757,-0.952853 -0.95286,-0.952853 z m 0,13.612637 c -0.72002,0 -1.3059803,-0.585964 -1.3059803,-1.305983 V 2.627203 c 0,-0.72002 0.5859603,-1.305631 1.3059803,-1.305631 0.72002,0 1.30563,0.585611 1.30563,1.305631 v 11.353801 c 0,0.720019 -0.58561,1.305983 -1.30563,1.305983"
     style="fill:#b3b3b3;fill-opacity:1;fill-rule:nonzero;stroke:none;stroke-width:0.0352778"
     id="path601-3" /><path
     d="m 10.78653,14.807915 v 0 c -0.62371,0 -1.1295903,-0.505884 -1.1295903,-1.129595 V 2.32452 c 0,-0.623712 0.5058803,-1.129242 1.1295903,-1.129242 v 0 c 0.62371,0 1.12924,0.50553 1.12924,1.129242 v 11.3538 c 0,0.623711 -0.50553,1.129595 -1.12924,1.129595"
     style="fill:#cccccc;fill-opacity:1;fill-rule:nonzero;stroke:none;stroke-width:0.0352778"
     id="path603-9" /><path
     d="m 30.6578,13.983473 c 0,1.169106 -0.94792,2.11702 -2.11667,2.11702 -1.1691,0 -2.11667,-0.947914 -2.11667,-2.11702 0,-1.169106 0.94757,-2.116667 2.11667,-2.116667 1.16875,0 2.11667,0.947561 2.11667,2.116667"
     style="fill:#ffffff;fill-opacity:1;fill-rule:nonzero;stroke:none;stroke-width:0.0352778"
     id="path605-8" /><path
     d="m 28.54113,15.110598 v 0 c -0.62371,0 -1.12924,-0.505883 -1.12924,-1.129594 V 2.627203 c 0,-0.623711 0.50553,-1.129242 1.12924,-1.129242 v 0 c 0.62336,0 1.12924,0.505531 1.12924,1.129242 v 11.353801 c 0,0.623711 -0.50588,1.129594 -1.12924,1.129594"
     style="fill:#b3b3b3;fill-opacity:1;fill-rule:nonzero;stroke:none;stroke-width:0.0352778"
     id="path607-6" /><path
     d="m 28.54113,1.67435 c -0.52564,0 -0.95285,0.427567 -0.95285,0.952853 v 11.353801 c 0,0.525639 0.42721,0.953205 0.95285,0.953205 0.52564,0 0.95321,-0.427566 0.95321,-0.953205 V 2.627203 c 0,-0.525286 -0.42757,-0.952853 -0.95321,-0.952853 z m 0,13.612637 c -0.72002,0 -1.30563,-0.585964 -1.30563,-1.305983 V 2.627203 c 0,-0.72002 0.58561,-1.305631 1.30563,-1.305631 0.72002,0 1.30598,0.585611 1.30598,1.305631 v 11.353801 c 0,0.720019 -0.58596,1.305983 -1.30598,1.305983"
     style="fill:#b3b3b3;fill-opacity:1;fill-rule:nonzero;stroke:none;stroke-width:0.0352778"
     id="path609-5" /><path
     d="m 28.37991,14.807915 v 0 c -0.62406,0 -1.12959,-0.505884 -1.12959,-1.129595 V 2.32452 c 0,-0.623712 0.50553,-1.129242 1.12959,-1.129242 v 0 c 0.62336,0 1.12924,0.50553 1.12924,1.129242 v 11.3538 c 0,0.623711 -0.50588,1.129595 -1.12924,1.129595"
     style="fill:#cccccc;fill-opacity:1;fill-rule:nonzero;stroke:none;stroke-width:0.0352778"
     id="path611-7" /><path
     d="m 35.74944,13.983473 c 0,1.169106 -0.94756,2.11702 -2.11667,2.11702 -1.1691,0 -2.11666,-0.947914 -2.11666,-2.11702 0,-1.169106 0.94756,-2.116667 2.11666,-2.116667 1.16911,0 2.11667,0.947561 2.11667,2.116667"
     style="fill:#ffffff;fill-opacity:1;fill-rule:nonzero;stroke:none;stroke-width:0.0352778"
     id="path613-6" /><path
     d="m 33.63277,15.110598 v 0 c -0.62336,0 -1.12924,-0.505883 -1.12924,-1.129594 V 2.627203 c 0,-0.623711 0.50588,-1.129242 1.12924,-1.129242 v 0 c 0.62371,0 1.12924,0.505531 1.12924,1.129242 v 11.353801 c 0,0.623711 -0.50553,1.129594 -1.12924,1.129594"
     style="fill:#b3b3b3;fill-opacity:1;fill-rule:nonzero;stroke:none;stroke-width:0.0352778"
     id="path615-2" /><path
     d="m 33.63277,1.67435 c -0.52528,0 -0.95285,0.427567 -0.95285,0.952853 v 11.353801 c 0,0.525639 0.42757,0.953205 0.95285,0.953205 0.52564,0 0.95286,-0.427566 0.95286,-0.953205 V 2.627203 c 0,-0.525286 -0.42722,-0.952853 -0.95286,-0.952853 z m 0,13.612637 c -0.72002,0 -1.30563,-0.585964 -1.30563,-1.305983 V 2.627203 c 0,-0.72002 0.58561,-1.305631 1.30563,-1.305631 0.72002,0 1.30563,0.585611 1.30563,1.305631 v 11.353801 c 0,0.720019 -0.58561,1.305983 -1.30563,1.305983"
     style="fill:#b3b3b3;fill-opacity:1;fill-rule:nonzero;stroke:none;stroke-width:0.0352778"
     id="path617-7" /><path
     d="m 33.47155,14.807915 v 0 c -0.62371,0 -1.12924,-0.505884 -1.12924,-1.129595 V 2.32452 c 0,-0.623712 0.50553,-1.129242 1.12924,-1.129242 v 0 c 0.62371,0 1.12925,0.50553 1.12925,1.129242 v 11.3538 c 0,0.623711 -0.50554,1.129595 -1.12925,1.129595"
     style="fill:#cccccc;fill-opacity:1;fill-rule:nonzero;stroke:none;stroke-width:0.0352778"
     id="path619-0" /><path
     d="m 54.09882,13.983473 c 0,1.169106 -0.94791,2.11702 -2.11702,2.11702 -1.1691,0 -2.11666,-0.947914 -2.11666,-2.11702 0,-1.169106 0.94756,-2.116667 2.11666,-2.116667 1.16911,0 2.11702,0.947561 2.11702,2.116667"
     style="fill:#ffffff;fill-opacity:1;fill-rule:nonzero;stroke:none;stroke-width:0.0352778"
     id="path621-3" /><path
     d="m 51.9818,15.110598 v 0 c -0.62371,0 -1.12924,-0.505883 -1.12924,-1.129594 V 2.627203 c 0,-0.623711 0.50553,-1.129242 1.12924,-1.129242 v 0 c 0.62407,0 1.12925,0.505531 1.12925,1.129242 v 11.353801 c 0,0.623711 -0.50518,1.129594 -1.12925,1.129594"
     style="fill:#b3b3b3;fill-opacity:1;fill-rule:nonzero;stroke:none;stroke-width:0.0352778"
     id="path623-9" /><path
     d="m 51.98216,1.67435 c -0.52529,0 -0.95286,0.427567 -0.95286,0.952853 v 11.353801 c 0,0.525639 0.42757,0.953205 0.95286,0.953205 0.52528,0 0.95285,-0.427566 0.95285,-0.953205 V 2.627203 c 0,-0.525286 -0.42757,-0.952853 -0.95285,-0.952853 z m 0,13.612637 c -0.72002,0 -1.30563,-0.585964 -1.30563,-1.305983 V 2.627203 c 0,-0.72002 0.58561,-1.305631 1.30563,-1.305631 0.72002,0 1.30563,0.585611 1.30563,1.305631 v 11.353801 c 0,0.720019 -0.58561,1.305983 -1.30563,1.305983"
     style="fill:#b3b3b3;fill-opacity:1;fill-rule:nonzero;stroke:none;stroke-width:0.0352778"
     id="path625-9" /><path
     d="m 51.82059,14.807915 v 0 c -0.62372,0 -1.12925,-0.505884 -1.12925,-1.129595 V 2.32452 c 0,-0.623712 0.50553,-1.129242 1.12925,-1.129242 v 0 c 0.62371,0 1.12924,0.50553 1.12924,1.129242 v 11.3538 c 0,0.623711 -0.50553,1.129595 -1.12924,1.129595"
     style="fill:#cccccc;fill-opacity:1;fill-rule:nonzero;stroke:none;stroke-width:0.0352778"
     id="path627-9" /><path
     d="m 59.19082,13.983473 c 0,1.169106 -0.94791,2.11702 -2.11702,2.11702 -1.16911,0 -2.11667,-0.947914 -2.11667,-2.11702 0,-1.169106 0.94756,-2.116667 2.11667,-2.116667 1.16911,0 2.11702,0.947561 2.11702,2.116667"
     style="fill:#ffffff;fill-opacity:1;fill-rule:nonzero;stroke:none;stroke-width:0.0352778"
     id="path629-1" /><path
     d="m 57.0738,15.110598 v 0 c -0.62371,0 -1.12959,-0.505883 -1.12959,-1.129594 V 2.627203 c 0,-0.623711 0.50588,-1.129242 1.12959,-1.129242 v 0 c 0.62371,0 1.12924,0.505531 1.12924,1.129242 v 11.353801 c 0,0.623711 -0.50553,1.129594 -1.12924,1.129594"
     style="fill:#b3b3b3;fill-opacity:1;fill-rule:nonzero;stroke:none;stroke-width:0.0352778"
     id="path631-7" /><path
     d="m 57.07415,1.67435 c -0.52564,0 -0.9532,0.427567 -0.9532,0.952853 v 11.353801 c 0,0.525639 0.42756,0.953205 0.9532,0.953205 0.52529,0 0.95286,-0.427566 0.95286,-0.953205 V 2.627203 c 0,-0.525286 -0.42757,-0.952853 -0.95286,-0.952853 z m 0,13.612637 c -0.72002,0 -1.30598,-0.585964 -1.30598,-1.305983 V 2.627203 c 0,-0.72002 0.58596,-1.305631 1.30598,-1.305631 0.72002,0 1.30563,0.585611 1.30563,1.305631 v 11.353801 c 0,0.720019 -0.58561,1.305983 -1.30563,1.305983"
     style="fill:#b3b3b3;fill-opacity:1;fill-rule:nonzero;stroke:none;stroke-width:0.0352778"
     id="path633-2" /><path
     d="m 56.91258,14.807915 v 0 c -0.62406,0 -1.12959,-0.505884 -1.12959,-1.129595 V 2.32452 c 0,-0.623712 0.50553,-1.129242 1.12959,-1.129242 v 0 c 0.62336,0 1.12924,0.50553 1.12924,1.129242 v 11.3538 c 0,0.623711 -0.50588,1.129595 -1.12924,1.129595"
     style="fill:#cccccc;fill-opacity:1;fill-rule:nonzero;stroke:none;stroke-width:0.0352778"
     id="path635-3" /><path
     d="m 76.717175,13.983473 c 0,1.169106 -0.94757,2.11702 -2.11666,2.11702 -1.16911,0 -2.11702,-0.947914 -2.11702,-2.11702 0,-1.169106 0.94791,-2.116667 2.11702,-2.116667 1.16909,0 2.11666,0.947561 2.11666,2.116667"
     style="fill:#ffffff;fill-opacity:1;fill-rule:nonzero;stroke:none;stroke-width:0.0352778"
     id="path637-6" /><path
     d="m 74.600505,15.110598 v 0 c -0.62371,0 -1.12925,-0.505883 -1.12925,-1.129594 V 2.627203 c 0,-0.623711 0.50554,-1.129242 1.12925,-1.129242 v 0 c 0.62371,0 1.12924,0.505531 1.12924,1.129242 v 11.353801 c 0,0.623711 -0.50552,1.129594 -1.12924,1.129594"
     style="fill:#b3b3b3;fill-opacity:1;fill-rule:nonzero;stroke:none;stroke-width:0.0352778"
     id="path639-5" /><path
     d="m 74.600505,1.67435 c -0.52529,0 -0.95286,0.427567 -0.95286,0.952853 v 11.353801 c 0,0.525639 0.42758,0.953205 0.95286,0.953205 0.52528,0 0.95285,-0.427566 0.95285,-0.953205 V 2.627203 c 0,-0.525286 -0.42757,-0.952853 -0.95285,-0.952853 z m 0,13.612637 c -0.72002,0 -1.30563,-0.585964 -1.30563,-1.305983 V 2.627203 c 0,-0.72002 0.58561,-1.305631 1.30563,-1.305631 0.72002,0 1.30563,0.585611 1.30563,1.305631 v 11.353801 c 0,0.720019 -0.58561,1.305983 -1.30563,1.305983"
     style="fill:#b3b3b3;fill-opacity:1;fill-rule:nonzero;stroke:none;stroke-width:0.0352778"
     id="path641-5" /><path
     d="m 74.438925,14.807915 v 0 c -0.62334,0 -1.12924,-0.505884 -1.12924,-1.129595 V 2.32452 c 0,-0.623712 0.50589,-1.129242 1.12924,-1.129242 v 0 c 0.62407,0 1.12961,0.50553 1.12961,1.129242 v 11.3538 c 0,0.623711 -0.50553,1.129595 -1.12961,1.129595"
     style="fill:#cccccc;fill-opacity:1;fill-rule:nonzero;stroke:none;stroke-width:0.0352778"
     id="path643-8" /><path
     d="m 81.807405,13.983473 c 0,1.169106 -0.94544,2.11702 -2.11666,2.11702 -1.1677,0 -2.11527,-0.947914 -2.11527,-2.11702 0,-1.169106 0.94757,-2.116667 2.11527,-2.116667 1.17122,0 2.11666,0.947561 2.11666,2.116667"
     style="fill:#ffffff;fill-opacity:1;fill-rule:nonzero;stroke:none;stroke-width:0.0352778"
     id="path645-1" /><path
     d="m 79.690745,15.110598 v 0 c -0.62089,0 -1.1289,-0.505883 -1.1289,-1.129594 V 2.627203 c 0,-0.623711 0.50801,-1.129242 1.1289,-1.129242 v 0 c 0.62441,0 1.1324,0.505531 1.1324,1.129242 v 11.353801 c 0,0.623711 -0.508,1.129594 -1.1324,1.129594"
     style="fill:#b3b3b3;fill-opacity:1;fill-rule:nonzero;stroke:none;stroke-width:0.0352778"
     id="path647-4" /><path
     d="m 79.690745,1.67435 c -0.52211,0 -0.9525,0.427567 -0.9525,0.952853 v 11.353801 c 0,0.525639 0.43039,0.953205 0.9525,0.953205 0.52564,0 0.95603,-0.427566 0.95603,-0.953205 V 2.627203 c 0,-0.525286 -0.43039,-0.952853 -0.95603,-0.952853 z m 0,13.612637 c -0.71968,0 -1.30529,-0.585964 -1.30529,-1.305983 V 2.627203 c 0,-0.72002 0.58561,-1.305631 1.30529,-1.305631 0.72318,0 1.30879,0.585611 1.30879,1.305631 v 11.353801 c 0,0.720019 -0.58561,1.305983 -1.30879,1.305983"
     style="fill:#b3b3b3;fill-opacity:1;fill-rule:nonzero;stroke:none;stroke-width:0.0352778"
     id="path649-7" /><path
     d="m 79.531995,14.807915 v 0 c -0.62442,0 -1.1289,-0.505884 -1.1289,-1.129595 V 2.32452 c 0,-0.623712 0.50447,-1.129242 1.1289,-1.129242 v 0 c 0.62441,0 1.12889,0.50553 1.12889,1.129242 v 11.3538 c 0,0.623711 -0.50448,1.129595 -1.12889,1.129595"
     style="fill:#cccccc;fill-opacity:1;fill-rule:nonzero;stroke:none;stroke-width:0.0352778"
     id="path651-1" /><path
     d="m 71.4569,93.969496 13.867705,-13.86629 h -10.72268 c -1.73708,0 -3.145025,1.40829 -3.145025,3.14537 v 10.72092"
     style="fill:#ff5959;fill-opacity:1;fill-rule:nonzero;stroke:none;stroke-width:0.0352778"
     id="path653-3" /><path
     d="m 64.49597,58.144486 c 0,11.46619 -9.77286,20.76133 -21.8345,20.76133 -12.05778,0 -21.83284,-9.29514 -21.83284,-20.76133 0,-11.46619 9.77506,-20.76133 21.83284,-20.76133 12.06164,0 21.8345,9.29514 21.8345,20.76133"
     style="fill:#ff5959;fill-opacity:1;fill-rule:nonzero;stroke:none;stroke-width:0.0537792"
     id="path677-8" /><rect
     style="fill:#ffffff;fill-opacity:1;stroke-width:0.183022"
     id="rect3560"
     width="7.0805955"
     height="19.01458"
     x="39.121994"
     y="43.223412"
     ry="3.4571967" /><circle
     style="fill:#ffffff;fill-opacity:1;stroke-width:0.063077"
     id="path3666"
     cx="42.662308"
     cy="68.894722"
     r="3.5405002" /></svg>
